<svg enable-background="new 0 0 64 64" viewBox="0 0 64 64" xmlns="http://www.w3.org/2000/svg"><circle cx="32" cy="32" fill="#4f5d73" r="32"/><path d="m44.6 38c-.9 0-1.2-.6-.6-1.4l4.8-6c.6-.8 1.6-.8 2.2 0l4.8 6c.6.8.3 1.4-.6 1.4z" fill="#231f20" opacity=".2"/><path d="m8.9 38c-.9 0-1.2-.6-.6-1.4l4.8-6c.6-.8 1.6-.8 2.2 0l4.8 6c.6.8.3 1.4-.6 1.4z" fill="#231f20" opacity=".2"/><path d="m44.6 36c-.9 0-1.2-.6-.6-1.4l4.8-6c.6-.8 1.6-.8 2.2 0l4.8 6c.6.8.3 1.4-.6 1.4z" fill="#e0e0d1"/><path d="m8.9 36c-.9 0-1.2-.6-.6-1.4l4.8-6c.6-.8 1.6-.8 2.2 0l4.8 6c.6.8.3 1.4-.6 1.4z" fill="#e0e0d1"/><path d="m32 56c-11 0-20-9-20-20 0-1.1.9-2 2-2s2 .9 2 2c0 8.8 7.2 16 16 16s16-7.2 16-16c0-1.1.9-2 2-2s2 .9 2 2c0 11-9 20-20 20z" fill="#231f20" opacity=".2"/><path d="m32 54c-11 0-20-9-20-20 0-1.1.9-2 2-2s2 .9 2 2c0 8.8 7.2 16 16 16s16-7.2 16-16c0-1.1.9-2 2-2s2 .9 2 2c0 11-9 20-20 20z" fill="#e0e0d1"/><path d="m30 20h4v32h-4z" fill="#e0e0d1"/><path d="m32 24c-3.3 0-6-2.7-6-6s2.7-6 6-6 6 2.7 6 6-2.7 6-6 6zm0-8c-1.1 0-2 .9-2 2s.9 2 2 2 2-.9 2-2-.9-2-2-2z" fill="#231f20" opacity=".2"/><path d="m40 31c0 1.1-.9 2-2 2h-12c-1.1 0-2-.9-2-2 0-1.1.9-2 2-2h12c1.1 0 2 .9 2 2z" fill="#231f20" opacity=".2"/><g fill="#e0e0d1"><path d="m32 22c-3.3 0-6-2.7-6-6s2.7-6 6-6 6 2.7 6 6-2.7 6-6 6zm0-8c-1.1 0-2 .9-2 2s.9 2 2 2 2-.9 2-2-.9-2-2-2z"/><path d="m40 29c0 1.1-.9 2-2 2h-12c-1.1 0-2-.9-2-2 0-1.1.9-2 2-2h12c1.1 0 2 .9 2 2z"/></g></svg>